<svg width="100" height="39" viewBox="0 0 100 39" fill="none" xmlns="http://www.w3.org/2000/svg">
                    <g clip-path="url(#clip0_33_8086)">
                        <path
                            d="M63.7031 7.71582C61.0731 7.71582 58.5096 8.66776 56.5121 10.3879V7.71582H52.6836V36.5411H56.5121V27.1386C61.123 31.1134 68.081 30.5957 72.0427 25.9696C76.0044 21.3435 75.4884 14.3627 70.8775 10.3879C68.8966 8.66776 66.3498 7.71582 63.7031 7.71582ZM63.7031 25.9529C59.7414 25.9529 56.5288 22.7297 56.5288 18.7549C56.5288 14.7802 59.7414 11.557 63.7031 11.557C67.6648 11.557 70.8775 14.7802 70.8775 18.7549C70.8775 22.7297 67.6648 25.9529 63.7031 25.9529Z"
                            fill="#6FBE49"
                        />
                        <path
                            d="M44.0608 7.71582V10.3879C39.4499 6.41317 32.4919 6.93089 28.5302 11.557C24.5685 16.183 25.0845 23.1639 29.6954 27.1386C33.8236 30.7126 39.9326 30.7126 44.0774 27.1386V29.8107H47.906V7.71582H44.0608ZM36.8864 25.9529C32.9247 25.9529 29.712 22.7297 29.712 18.7549C29.712 14.7802 32.9247 11.557 36.8864 11.557C40.8481 11.557 44.0608 14.7802 44.0608 18.7549C44.0441 22.7464 40.8481 25.9529 36.8864 25.9529Z"
                            fill="#6FBE49"
                        />
                        <path
                            d="M88.6055 7.71582C82.5298 7.71582 77.5859 12.6592 77.5859 18.7716C77.5859 24.8674 82.5131 29.8274 88.6055 29.8274C94.6812 29.8274 99.6251 24.8841 99.6251 18.7716C99.6251 12.6592 94.6979 7.71582 88.6055 7.71582ZM88.6055 25.9529C84.6438 25.9529 81.4311 22.7297 81.4311 18.7549C81.4311 14.7802 84.6438 11.557 88.6055 11.557C92.5672 11.557 95.7799 14.7802 95.7799 18.7549C95.7799 22.7297 92.5672 25.9529 88.6055 25.9529Z"
                            fill="#6FBE49"
                        />
                        <path
                            d="M22.0395 18.7716C22.0395 18.5712 22.0395 18.3708 22.0229 18.1704V7.71578H18.1943V10.3712C13.5834 6.39643 6.62543 6.93085 2.66371 11.5569C-1.298 16.183 -0.765336 23.1639 3.84557 27.1386C7.97374 30.6958 14.0828 30.6958 18.211 27.1219V28.1406C18.211 30.2282 17.645 31.8315 16.4798 33.0506C15.2979 34.2865 13.7166 34.8877 11.6691 34.8877C8.48977 34.8877 6.30916 33.5349 5.04407 30.7793H0.965834C1.68161 33.2009 3.04657 35.1215 5.01078 36.4742C6.90841 37.7936 9.1556 38.4616 11.7191 38.4616C15.3146 38.4616 18.1444 37.1423 20.1086 34.537C20.9242 33.4347 21.4902 32.1655 21.7565 30.8127C21.873 30.1781 21.9563 29.5268 22.0062 28.8755C22.0229 28.625 22.0395 28.341 22.0395 26.9382V19.3728C22.0229 19.1724 22.0395 18.972 22.0395 18.7716ZM11.0199 25.9529C7.05822 25.9529 3.84557 22.7296 3.84557 18.7549C3.84557 14.7801 7.05822 11.5569 11.0199 11.5569C14.9817 11.5569 18.1943 14.7801 18.1943 18.7549C18.1943 22.7463 14.9817 25.9529 11.0199 25.9529Z"
                            fill="#6FBE49"
                        />
                    </g>
                    <defs>
                        <clipPath id="clip0_33_8086">
                            <rect width="100" height="38.4615" fill="white" />
                        </clipPath>
                    </defs>
                </svg>